# xmcd
# Track frame offsets:
# 150
# 19882
# 34052
# 49192
# 66210
# 79815
# 97997
# 112810
# 132670
# 164310
#
# Disc length: 2460 seconds
# Revision: 0
# Processed by: cddbd v1.4PL0 Copyright (c) Steve Scherf et al.
# Submitted via: VisiTrax 2.9.5.180 - For more info visit www.synapsa.com
#
DISCID=7f099a0a
DTITLE=Wayne Newton - Moods&Moments
DYEAR=1992
DGENRE=Country
TTITLE0=I Know So
TTITLE1=Vital Signs
TTITLE2=I Was Losing You
TTITLE3=Little Bits And Pieces
TTITLE4=Old Loves Never Die
TTITLE5=At This Moment
TTITLE6=The Music That We Made
TTITLE7=Play It Again Sam
TTITLE8=Tell Me Who We Are
TTITLE9=The Letter
EXTD=
EXTT0=
EXTT1=
EXTT2=
EXTT3=
EXTT4=
EXTT5=
EXTT6=
EXTT7=
EXTT8=
EXTT9=
PLAYORDER=
